<?xml version="1.0" encoding="UTF-8"?><svg id="a" xmlns="http://www.w3.org/2000/svg" xmlns:xlink="http://www.w3.org/1999/xlink" viewBox="0 0 204.3 202.67"><defs><clipPath id="b"><rect x="2.65" y="1.34" width="199" height="200" style="fill:none;"/></clipPath></defs><path d="M36.59,137.62v9.77h60.83V36.96h-9.73v100.66h-51.09Z" style="fill:#ffc35a;"/><path d="M107.84,36.96v110.43h60.83v-9.77h-51.09V36.96h-9.73Z" style="fill:#ffc35a;"/><g style="clip-path:url(#b);"><path d="M196.45,108.29h-67.18v9.77h61.19c-7.92,41.68-43.89,73.5-87.84,73.5-49.74,0-90.23-40.47-90.23-90.23S52.88,11.11,102.62,11.11c24.55,0,46.78,9.91,63.06,25.85h12.81C160.13,15.36,133.12,1.34,102.62,1.34,47.5,1.34,2.65,46.22,2.65,101.34s44.85,100,99.97,100,95.63-41.21,99.28-93.04h-5.45Z" style="fill:#ffc35a;"/></g></svg>